<?xml version="1.0" encoding="UTF-8" standalone="no"?>
<!-- Created with Inkscape (http://www.inkscape.org/) -->

<svg xmlns:dc="http://purl.org/dc/elements/1.1/" xmlns:cc="http://creativecommons.org/ns#" xmlns:rdf="http://www.w3.org/1999/02/22-rdf-syntax-ns#" xmlns:svg="http://www.w3.org/2000/svg" xmlns="http://www.w3.org/2000/svg" xmlns:sodipodi="http://sodipodi.sourceforge.net/DTD/sodipodi-0.dtd" xmlns:inkscape="http://www.inkscape.org/namespaces/inkscape" width="250" height="600" viewBox="0 0 250 600" id="svg2" version="1.1" inkscape:version="0.91 r13725" sodipodi:docname="woodspoons.svg">
  <defs id="defs4" />
  <sodipodi:namedview id="base" pagecolor="#c0a5cd" bordercolor="#666666" borderopacity="1.0" inkscape:pageopacity="0" inkscape:pageshadow="2" inkscape:zoom="0.23305" inkscape:cx="-207.58" inkscape:cy="184.58" inkscape:document-units="px" inkscape:current-layer="picture" showgrid="false" units="px" inkscape:window-width="1680" inkscape:window-height="1001" inkscape:window-x="0" inkscape:window-y="25" inkscape:window-maximized="1" fit-margin-top="0" fit-margin-left="0" fit-margin-right="0" fit-margin-bottom="0" />
  <metadata id="metadata7">
    <rdf:RDF>
      <cc:Work rdf:about="">
        <dc:format>image/svg+xml</dc:format>
        <dc:type rdf:resource="http://purl.org/dc/dcmitype/StillImage" />
        <dc:title></dc:title>
      </cc:Work>
    </rdf:RDF>
  </metadata>
  <g inkscape:label="picture" inkscape:groupmode="layer" id="picture" transform="translate(255.1,-183.62)">
    <g transform="matrix(0.44651,0,0,0.44651,-1657.2,-791.72)" id="g5146">
      <path style="clip-rule:evenodd;fill:#a57d5d;fill-rule:evenodd" inkscape:connector-curvature="0" id="path314" d="m 3354.7,3177.8 c -53.1,-164.7 -44.1,-332.1 -37.9,-500.7 5.1,-136.8 4,-273.7 4.6,-410.6 0,-15.8 -2.8,-34 -11,-46.7 -26.2,-40.5 -47.9,-23.9 -72,4.8 -3.4,3.9 -2.9,11.6 -3.1,17.6 -2.2,62.7 -6.3,125.3 -5.7,187.9 1.2,116.6 1.9,233.4 9,349.8 7.4,121.1 -1,239 -42.6,353.7 -38.6,106.6 -51.1,216.8 -45.1,329.5 0.8,14 1.6,29.7 8.2,41.3 5.3,9.2 12.5,18.4 23.9,17.7 11.3,-0.7 20.6,-14.7 21,-23.4 1.9,-37.5 1,-75.1 1.3,-112.7 0.2,-31.5 -0.4,-63 1.7,-94.4 1.8,-26.9 32.9,-26.5 33.4,1 0.1,6.4 0.7,13.9 0.7,21 -0.2,54.8 -0.6,109.6 -0.6,164.5 0,21.9 -4.7,49.3 29.1,48.9 14.8,0 25.8,-17.4 26,-50.3 0.3,-56.2 -0.1,-143.5 1.9,-184.5 1.2,-25.8 32.5,-27 33.9,0 1.8,35.5 0.7,71 0.7,106.6 l 0.2,0 c 0,35.5 -1.1,71.1 0.9,106.5 0.4,7.9 3.6,21.7 17.9,21.3 20.6,-0.5 25.3,-27.2 26,-32.2 13.7,-107.1 10.6,-214.2 -22.4,-316.6 z m -79.6,-906.4 c -12.1,0 -21.9,-9.8 -21.9,-21.9 0,-12.1 9.8,-22 21.9,-22 12.1,0 22,9.9 22,22 0,12.1 -9.9,21.9 -22,21.9 z" />
      <path style="clip-rule:evenodd;fill:#a57d5d;fill-rule:evenodd" inkscape:connector-curvature="0" id="path316" d="m 3690.9,3292.8 c -0.1,-26.9 -2.7,-53.8 -8.8,-78.3 -9.8,-39.1 -31.1,-74 -44.1,-111.9 -10.2,-29.7 -26.5,-60.8 -32.4,-91.6 -12,-62.4 -17.3,-127 -16.8,-190.4 0.4,-50.3 2.6,-100.8 4.6,-151.4 4.9,-128 3.8,-256.2 4.3,-384.3 0,-1.7 0,-3.5 -0.1,-5.3 0.1,-9.2 0.1,-18.5 0.1,-27.8 0.1,-14.8 -2.6,-31.8 -10.6,-43.7 -25.3,-37.9 -46.2,-22.4 -69.6,4.5 -3.2,3.6 -2.7,10.9 -2.9,16.5 -2.1,58.6 -6.2,117.3 -5.6,175.8 0.1,1.6 0.1,3.2 0.1,4.7 -0.1,9.5 -0.1,18.9 -0.1,28.4 1.2,109.2 1.8,218.6 8.7,327.5 1.2,18.2 1.9,36.2 2.2,54.2 -1.4,83 -13.5,164.3 -43.3,243.8 -13.8,37 -35.1,70.7 -47.3,108.3 -12.7,39.2 -19.9,80.1 -24.2,121 -14.5,139.1 62.8,225.3 140.2,225.3 79,0 128.4,-78.2 139.4,-147.5 3.9,-24.5 6.3,-51.1 6.2,-77.8 z m -135.1,-1026.1 c -12.2,0 -22,-9.8 -22,-21.9 0,-12.2 9.8,-22 22,-22 12.1,0 21.9,9.8 21.9,22 0,12.1 -9.8,21.9 -21.9,21.9 z" />
    </g>
  </g>
</svg>
